<mxfile host="app.diagrams.net" agent="Mozilla/5.0 (Windows NT 10.0; Win64; x64) AppleWebKit/537.36 (KHTML, like Gecko) Chrome/131.0.0.0 Safari/537.36" version="25.0.1">
  <diagram name="1 oldal" id="Y89i1WQ8OMozFqZU52EG">
    <mxGraphModel dx="1290" dy="522" grid="1" gridSize="10" guides="1" tooltips="1" connect="1" arrows="1" fold="1" page="1" pageScale="1" pageWidth="1654" pageHeight="1169" math="0" shadow="0">
      <root>
        <mxCell id="0" />
        <mxCell id="1" parent="0" />
        <mxCell id="_i2WzTihqjqj80gomEKn-1" value="RESTAURANT" style="ellipse;whiteSpace=wrap;html=1;" parent="1" vertex="1">
          <mxGeometry x="2455" y="290" width="120" height="80" as="geometry" />
        </mxCell>
        <mxCell id="_i2WzTihqjqj80gomEKn-2" value="INGREDIENTS" style="ellipse;shape=doubleEllipse;margin=3;whiteSpace=wrap;html=1;align=center;" parent="1" vertex="1">
          <mxGeometry x="440" y="480" width="100" height="40" as="geometry" />
        </mxCell>
        <mxCell id="_i2WzTihqjqj80gomEKn-3" value="name" style="ellipse;whiteSpace=wrap;html=1;align=center;" parent="1" vertex="1">
          <mxGeometry x="320" y="570" width="100" height="40" as="geometry" />
        </mxCell>
        <mxCell id="_i2WzTihqjqj80gomEKn-4" value="type" style="ellipse;whiteSpace=wrap;html=1;align=center;" parent="1" vertex="1">
          <mxGeometry x="435" y="570" width="100" height="40" as="geometry" />
        </mxCell>
        <mxCell id="_i2WzTihqjqj80gomEKn-5" value="stockQuantity" style="ellipse;whiteSpace=wrap;html=1;align=center;" parent="1" vertex="1">
          <mxGeometry x="670" y="570" width="100" height="40" as="geometry" />
        </mxCell>
        <mxCell id="_i2WzTihqjqj80gomEKn-6" value="purchasePrice" style="ellipse;whiteSpace=wrap;html=1;align=center;" parent="1" vertex="1">
          <mxGeometry x="555" y="570" width="100" height="40" as="geometry" />
        </mxCell>
        <mxCell id="_i2WzTihqjqj80gomEKn-7" value="" style="endArrow=none;html=1;rounded=0;exitX=0.5;exitY=0;exitDx=0;exitDy=0;entryX=0.5;entryY=1;entryDx=0;entryDy=0;" parent="1" source="_i2WzTihqjqj80gomEKn-78" target="_i2WzTihqjqj80gomEKn-2" edge="1">
          <mxGeometry width="50" height="50" relative="1" as="geometry">
            <mxPoint x="260" y="570" as="sourcePoint" />
            <mxPoint x="480" y="490" as="targetPoint" />
          </mxGeometry>
        </mxCell>
        <mxCell id="_i2WzTihqjqj80gomEKn-8" value="" style="endArrow=none;html=1;rounded=0;exitX=0.5;exitY=0;exitDx=0;exitDy=0;entryX=0.5;entryY=1;entryDx=0;entryDy=0;" parent="1" source="_i2WzTihqjqj80gomEKn-3" target="_i2WzTihqjqj80gomEKn-2" edge="1">
          <mxGeometry width="50" height="50" relative="1" as="geometry">
            <mxPoint x="270" y="580" as="sourcePoint" />
            <mxPoint x="490" y="540" as="targetPoint" />
          </mxGeometry>
        </mxCell>
        <mxCell id="_i2WzTihqjqj80gomEKn-9" value="" style="endArrow=none;html=1;rounded=0;exitX=0.5;exitY=0;exitDx=0;exitDy=0;entryX=0.5;entryY=1;entryDx=0;entryDy=0;" parent="1" source="_i2WzTihqjqj80gomEKn-4" target="_i2WzTihqjqj80gomEKn-2" edge="1">
          <mxGeometry width="50" height="50" relative="1" as="geometry">
            <mxPoint x="380" y="580" as="sourcePoint" />
            <mxPoint x="500" y="530" as="targetPoint" />
          </mxGeometry>
        </mxCell>
        <mxCell id="_i2WzTihqjqj80gomEKn-10" value="" style="endArrow=none;html=1;rounded=0;exitX=0.5;exitY=0;exitDx=0;exitDy=0;entryX=0.5;entryY=1;entryDx=0;entryDy=0;" parent="1" source="_i2WzTihqjqj80gomEKn-6" target="_i2WzTihqjqj80gomEKn-2" edge="1">
          <mxGeometry width="50" height="50" relative="1" as="geometry">
            <mxPoint x="495" y="580" as="sourcePoint" />
            <mxPoint x="500" y="530" as="targetPoint" />
          </mxGeometry>
        </mxCell>
        <mxCell id="_i2WzTihqjqj80gomEKn-11" value="" style="endArrow=none;html=1;rounded=0;entryX=0.5;entryY=1;entryDx=0;entryDy=0;exitX=0.5;exitY=0;exitDx=0;exitDy=0;" parent="1" source="_i2WzTihqjqj80gomEKn-5" target="_i2WzTihqjqj80gomEKn-2" edge="1">
          <mxGeometry width="50" height="50" relative="1" as="geometry">
            <mxPoint x="720" y="560" as="sourcePoint" />
            <mxPoint x="500" y="530" as="targetPoint" />
          </mxGeometry>
        </mxCell>
        <mxCell id="_i2WzTihqjqj80gomEKn-12" value="PRODUCT" style="ellipse;shape=doubleEllipse;margin=3;whiteSpace=wrap;html=1;align=center;" parent="1" vertex="1">
          <mxGeometry x="1265" y="480" width="100" height="40" as="geometry" />
        </mxCell>
        <mxCell id="_i2WzTihqjqj80gomEKn-13" value="name" style="ellipse;whiteSpace=wrap;html=1;align=center;" parent="1" vertex="1">
          <mxGeometry x="1150" y="562.5" width="100" height="40" as="geometry" />
        </mxCell>
        <mxCell id="_i2WzTihqjqj80gomEKn-14" value="price" style="ellipse;whiteSpace=wrap;html=1;align=center;" parent="1" vertex="1">
          <mxGeometry x="1265" y="562.5" width="100" height="40" as="geometry" />
        </mxCell>
        <mxCell id="_i2WzTihqjqj80gomEKn-15" value="description" style="ellipse;whiteSpace=wrap;html=1;align=center;" parent="1" vertex="1">
          <mxGeometry x="1500" y="562.5" width="100" height="40" as="geometry" />
        </mxCell>
        <mxCell id="_i2WzTihqjqj80gomEKn-16" value="type" style="ellipse;shape=doubleEllipse;margin=3;whiteSpace=wrap;html=1;align=center;" parent="1" vertex="1">
          <mxGeometry x="1385" y="562.5" width="100" height="40" as="geometry" />
        </mxCell>
        <mxCell id="_i2WzTihqjqj80gomEKn-17" value="" style="endArrow=none;html=1;rounded=0;exitX=0.5;exitY=0;exitDx=0;exitDy=0;entryX=0.5;entryY=1;entryDx=0;entryDy=0;" parent="1" source="_i2WzTihqjqj80gomEKn-79" target="_i2WzTihqjqj80gomEKn-12" edge="1">
          <mxGeometry width="50" height="50" relative="1" as="geometry">
            <mxPoint x="1240" y="565" as="sourcePoint" />
            <mxPoint x="1465" y="540" as="targetPoint" />
          </mxGeometry>
        </mxCell>
        <mxCell id="_i2WzTihqjqj80gomEKn-18" value="" style="endArrow=none;html=1;rounded=0;exitX=0.5;exitY=0;exitDx=0;exitDy=0;entryX=0.5;entryY=1;entryDx=0;entryDy=0;" parent="1" source="_i2WzTihqjqj80gomEKn-13" target="_i2WzTihqjqj80gomEKn-12" edge="1">
          <mxGeometry width="50" height="50" relative="1" as="geometry">
            <mxPoint x="1100" y="572.5" as="sourcePoint" />
            <mxPoint x="1315" y="537.5" as="targetPoint" />
          </mxGeometry>
        </mxCell>
        <mxCell id="_i2WzTihqjqj80gomEKn-19" value="" style="endArrow=none;html=1;rounded=0;entryX=0.5;entryY=1;entryDx=0;entryDy=0;exitX=0.5;exitY=0;exitDx=0;exitDy=0;" parent="1" source="_i2WzTihqjqj80gomEKn-14" target="_i2WzTihqjqj80gomEKn-12" edge="1">
          <mxGeometry width="50" height="50" relative="1" as="geometry">
            <mxPoint x="1360" y="552.5" as="sourcePoint" />
            <mxPoint x="1315" y="537.5" as="targetPoint" />
          </mxGeometry>
        </mxCell>
        <mxCell id="_i2WzTihqjqj80gomEKn-20" value="" style="endArrow=none;html=1;rounded=0;entryX=0.5;entryY=1;entryDx=0;entryDy=0;exitX=0.5;exitY=0;exitDx=0;exitDy=0;" parent="1" source="_i2WzTihqjqj80gomEKn-16" target="_i2WzTihqjqj80gomEKn-12" edge="1">
          <mxGeometry width="50" height="50" relative="1" as="geometry">
            <mxPoint x="1325" y="572.5" as="sourcePoint" />
            <mxPoint x="1315" y="537.5" as="targetPoint" />
          </mxGeometry>
        </mxCell>
        <mxCell id="_i2WzTihqjqj80gomEKn-21" value="" style="endArrow=none;html=1;rounded=0;entryX=0.5;entryY=1;entryDx=0;entryDy=0;exitX=0.5;exitY=0;exitDx=0;exitDy=0;" parent="1" source="_i2WzTihqjqj80gomEKn-15" target="_i2WzTihqjqj80gomEKn-12" edge="1">
          <mxGeometry width="50" height="50" relative="1" as="geometry">
            <mxPoint x="1550" y="562.5" as="sourcePoint" />
            <mxPoint x="1315" y="537.5" as="targetPoint" />
          </mxGeometry>
        </mxCell>
        <mxCell id="_i2WzTihqjqj80gomEKn-22" value="ORDER" style="ellipse;shape=doubleEllipse;margin=3;whiteSpace=wrap;html=1;align=center;" parent="1" vertex="1">
          <mxGeometry x="2305" y="480" width="100" height="40" as="geometry" />
        </mxCell>
        <mxCell id="_i2WzTihqjqj80gomEKn-23" value="date" style="ellipse;whiteSpace=wrap;html=1;align=center;" parent="1" vertex="1">
          <mxGeometry x="2190" y="565" width="100" height="40" as="geometry" />
        </mxCell>
        <mxCell id="_i2WzTihqjqj80gomEKn-24" value="price" style="ellipse;whiteSpace=wrap;html=1;align=center;" parent="1" vertex="1">
          <mxGeometry x="2305" y="565" width="100" height="40" as="geometry" />
        </mxCell>
        <mxCell id="_i2WzTihqjqj80gomEKn-25" value="status" style="ellipse;whiteSpace=wrap;html=1;align=center;" parent="1" vertex="1">
          <mxGeometry x="2540" y="565" width="100" height="40" as="geometry" />
        </mxCell>
        <mxCell id="_i2WzTihqjqj80gomEKn-26" value="items" style="ellipse;shape=doubleEllipse;margin=3;whiteSpace=wrap;html=1;align=center;" parent="1" vertex="1">
          <mxGeometry x="2425" y="565" width="100" height="40" as="geometry" />
        </mxCell>
        <mxCell id="_i2WzTihqjqj80gomEKn-27" value="" style="endArrow=none;html=1;rounded=0;exitX=0.5;exitY=0;exitDx=0;exitDy=0;entryX=0.5;entryY=1;entryDx=0;entryDy=0;" parent="1" source="_i2WzTihqjqj80gomEKn-80" target="_i2WzTihqjqj80gomEKn-22" edge="1">
          <mxGeometry width="50" height="50" relative="1" as="geometry">
            <mxPoint x="2130" y="550" as="sourcePoint" />
            <mxPoint x="2410" y="520" as="targetPoint" />
          </mxGeometry>
        </mxCell>
        <mxCell id="_i2WzTihqjqj80gomEKn-28" value="" style="endArrow=none;html=1;rounded=0;exitX=0.5;exitY=0;exitDx=0;exitDy=0;entryX=0.5;entryY=1;entryDx=0;entryDy=0;" parent="1" source="_i2WzTihqjqj80gomEKn-23" target="_i2WzTihqjqj80gomEKn-22" edge="1">
          <mxGeometry width="50" height="50" relative="1" as="geometry">
            <mxPoint x="2140" y="560" as="sourcePoint" />
            <mxPoint x="2365" y="530" as="targetPoint" />
          </mxGeometry>
        </mxCell>
        <mxCell id="_i2WzTihqjqj80gomEKn-29" value="" style="endArrow=none;html=1;rounded=0;exitX=0.5;exitY=0;exitDx=0;exitDy=0;entryX=0.5;entryY=1;entryDx=0;entryDy=0;" parent="1" source="_i2WzTihqjqj80gomEKn-24" target="_i2WzTihqjqj80gomEKn-22" edge="1">
          <mxGeometry width="50" height="50" relative="1" as="geometry">
            <mxPoint x="2250" y="560" as="sourcePoint" />
            <mxPoint x="2365" y="530" as="targetPoint" />
          </mxGeometry>
        </mxCell>
        <mxCell id="_i2WzTihqjqj80gomEKn-30" value="" style="endArrow=none;html=1;rounded=0;exitX=0.5;exitY=0;exitDx=0;exitDy=0;entryX=0.5;entryY=1;entryDx=0;entryDy=0;" parent="1" source="_i2WzTihqjqj80gomEKn-26" target="_i2WzTihqjqj80gomEKn-22" edge="1">
          <mxGeometry width="50" height="50" relative="1" as="geometry">
            <mxPoint x="2365" y="560" as="sourcePoint" />
            <mxPoint x="2365" y="530" as="targetPoint" />
          </mxGeometry>
        </mxCell>
        <mxCell id="_i2WzTihqjqj80gomEKn-31" value="" style="endArrow=none;html=1;rounded=0;exitX=0.5;exitY=0;exitDx=0;exitDy=0;entryX=0.5;entryY=1;entryDx=0;entryDy=0;" parent="1" source="_i2WzTihqjqj80gomEKn-25" target="_i2WzTihqjqj80gomEKn-22" edge="1">
          <mxGeometry width="50" height="50" relative="1" as="geometry">
            <mxPoint x="2590" y="550" as="sourcePoint" />
            <mxPoint x="2365" y="530" as="targetPoint" />
          </mxGeometry>
        </mxCell>
        <mxCell id="_i2WzTihqjqj80gomEKn-32" value="name" style="ellipse;whiteSpace=wrap;html=1;align=center;" parent="1" vertex="1">
          <mxGeometry x="2790" y="562.5" width="100" height="40" as="geometry" />
        </mxCell>
        <mxCell id="M32mEywmCu3_pC92UhcH-24" style="rounded=0;orthogonalLoop=1;jettySize=auto;html=1;exitX=0;exitY=0.5;exitDx=0;exitDy=0;entryX=0.5;entryY=0;entryDx=0;entryDy=0;startArrow=none;startFill=0;endArrow=none;endFill=0;" parent="1" source="_i2WzTihqjqj80gomEKn-33" target="M32mEywmCu3_pC92UhcH-20" edge="1">
          <mxGeometry relative="1" as="geometry" />
        </mxCell>
        <mxCell id="M32mEywmCu3_pC92UhcH-25" style="edgeStyle=none;rounded=0;orthogonalLoop=1;jettySize=auto;html=1;exitX=0;exitY=1;exitDx=0;exitDy=0;entryX=0.5;entryY=0;entryDx=0;entryDy=0;startArrow=none;startFill=0;endArrow=none;endFill=0;" parent="1" source="_i2WzTihqjqj80gomEKn-33" target="M32mEywmCu3_pC92UhcH-21" edge="1">
          <mxGeometry relative="1" as="geometry" />
        </mxCell>
        <mxCell id="M32mEywmCu3_pC92UhcH-26" style="edgeStyle=none;rounded=0;orthogonalLoop=1;jettySize=auto;html=1;exitX=1;exitY=1;exitDx=0;exitDy=0;entryX=0.5;entryY=0;entryDx=0;entryDy=0;startArrow=none;startFill=0;endArrow=none;endFill=0;" parent="1" source="_i2WzTihqjqj80gomEKn-33" target="M32mEywmCu3_pC92UhcH-22" edge="1">
          <mxGeometry relative="1" as="geometry" />
        </mxCell>
        <mxCell id="M32mEywmCu3_pC92UhcH-27" style="edgeStyle=none;rounded=0;orthogonalLoop=1;jettySize=auto;html=1;exitX=1;exitY=0.5;exitDx=0;exitDy=0;entryX=0.5;entryY=0;entryDx=0;entryDy=0;startArrow=none;startFill=0;endArrow=none;endFill=0;" parent="1" source="_i2WzTihqjqj80gomEKn-33" target="M32mEywmCu3_pC92UhcH-23" edge="1">
          <mxGeometry relative="1" as="geometry" />
        </mxCell>
        <mxCell id="_i2WzTihqjqj80gomEKn-33" value="address" style="ellipse;whiteSpace=wrap;html=1;align=center;" parent="1" vertex="1">
          <mxGeometry x="3070" y="562.5" width="100" height="40" as="geometry" />
        </mxCell>
        <mxCell id="_i2WzTihqjqj80gomEKn-34" value="phoneNumber" style="ellipse;whiteSpace=wrap;html=1;align=center;" parent="1" vertex="1">
          <mxGeometry x="3360" y="560" width="100" height="40" as="geometry" />
        </mxCell>
        <mxCell id="_i2WzTihqjqj80gomEKn-35" value="emial" style="ellipse;whiteSpace=wrap;html=1;align=center;" parent="1" vertex="1">
          <mxGeometry x="3480" y="560" width="100" height="40" as="geometry" />
        </mxCell>
        <mxCell id="_i2WzTihqjqj80gomEKn-36" value="regularCustomer" style="ellipse;whiteSpace=wrap;html=1;align=center;" parent="1" vertex="1">
          <mxGeometry x="3600" y="560" width="100" height="40" as="geometry" />
        </mxCell>
        <mxCell id="M32mEywmCu3_pC92UhcH-40" style="rounded=0;orthogonalLoop=1;jettySize=auto;html=1;exitX=1;exitY=0.5;exitDx=0;exitDy=0;entryX=0.5;entryY=0;entryDx=0;entryDy=0;startArrow=none;startFill=0;endArrow=none;endFill=0;" parent="1" source="_i2WzTihqjqj80gomEKn-37" target="M32mEywmCu3_pC92UhcH-39" edge="1">
          <mxGeometry relative="1" as="geometry" />
        </mxCell>
        <mxCell id="_i2WzTihqjqj80gomEKn-37" value="CUSTOMER" style="ellipse;shape=doubleEllipse;margin=3;whiteSpace=wrap;html=1;align=center;" parent="1" vertex="1">
          <mxGeometry x="3292.5" y="480" width="100" height="40" as="geometry" />
        </mxCell>
        <mxCell id="_i2WzTihqjqj80gomEKn-38" value="" style="endArrow=none;html=1;rounded=0;exitX=0.5;exitY=0;exitDx=0;exitDy=0;entryX=0.5;entryY=1;entryDx=0;entryDy=0;" parent="1" source="_i2WzTihqjqj80gomEKn-81" target="_i2WzTihqjqj80gomEKn-37" edge="1">
          <mxGeometry width="50" height="50" relative="1" as="geometry">
            <mxPoint x="2630" y="485" as="sourcePoint" />
            <mxPoint x="2987.5" y="365" as="targetPoint" />
          </mxGeometry>
        </mxCell>
        <mxCell id="_i2WzTihqjqj80gomEKn-39" value="" style="endArrow=none;html=1;rounded=0;exitX=0.5;exitY=0;exitDx=0;exitDy=0;entryX=0.5;entryY=1;entryDx=0;entryDy=0;" parent="1" source="_i2WzTihqjqj80gomEKn-32" target="_i2WzTihqjqj80gomEKn-37" edge="1">
          <mxGeometry width="50" height="50" relative="1" as="geometry">
            <mxPoint x="3080.5" y="570" as="sourcePoint" />
            <mxPoint x="3352.5" y="530" as="targetPoint" />
          </mxGeometry>
        </mxCell>
        <mxCell id="_i2WzTihqjqj80gomEKn-40" value="" style="endArrow=none;html=1;rounded=0;exitX=0.5;exitY=0;exitDx=0;exitDy=0;entryX=0.5;entryY=1;entryDx=0;entryDy=0;" parent="1" source="_i2WzTihqjqj80gomEKn-33" target="_i2WzTihqjqj80gomEKn-37" edge="1">
          <mxGeometry width="50" height="50" relative="1" as="geometry">
            <mxPoint x="3190.5" y="570" as="sourcePoint" />
            <mxPoint x="3352.5" y="530" as="targetPoint" />
          </mxGeometry>
        </mxCell>
        <mxCell id="_i2WzTihqjqj80gomEKn-41" value="" style="endArrow=none;html=1;rounded=0;exitX=0.5;exitY=0;exitDx=0;exitDy=0;entryX=0.5;entryY=1;entryDx=0;entryDy=0;" parent="1" source="_i2WzTihqjqj80gomEKn-34" target="_i2WzTihqjqj80gomEKn-37" edge="1">
          <mxGeometry width="50" height="50" relative="1" as="geometry">
            <mxPoint x="3200.5" y="580" as="sourcePoint" />
            <mxPoint x="3352.5" y="530" as="targetPoint" />
          </mxGeometry>
        </mxCell>
        <mxCell id="_i2WzTihqjqj80gomEKn-42" value="" style="endArrow=none;html=1;rounded=0;exitX=0.5;exitY=0;exitDx=0;exitDy=0;entryX=0.5;entryY=1;entryDx=0;entryDy=0;" parent="1" source="_i2WzTihqjqj80gomEKn-35" target="_i2WzTihqjqj80gomEKn-37" edge="1">
          <mxGeometry width="50" height="50" relative="1" as="geometry">
            <mxPoint x="3305.5" y="570" as="sourcePoint" />
            <mxPoint x="3352.5" y="530" as="targetPoint" />
          </mxGeometry>
        </mxCell>
        <mxCell id="_i2WzTihqjqj80gomEKn-43" value="" style="endArrow=none;html=1;rounded=0;exitX=0.5;exitY=0;exitDx=0;exitDy=0;entryX=0.5;entryY=1;entryDx=0;entryDy=0;" parent="1" source="_i2WzTihqjqj80gomEKn-36" target="_i2WzTihqjqj80gomEKn-37" edge="1">
          <mxGeometry width="50" height="50" relative="1" as="geometry">
            <mxPoint x="3540.5" y="570" as="sourcePoint" />
            <mxPoint x="3352.5" y="530" as="targetPoint" />
          </mxGeometry>
        </mxCell>
        <mxCell id="_i2WzTihqjqj80gomEKn-44" value="" style="rounded=0;whiteSpace=wrap;html=1;" parent="1" vertex="1">
          <mxGeometry x="340" y="640" width="60" height="60" as="geometry" />
        </mxCell>
        <mxCell id="_i2WzTihqjqj80gomEKn-45" value="" style="rounded=0;whiteSpace=wrap;html=1;" parent="1" vertex="1">
          <mxGeometry x="455" y="640" width="60" height="60" as="geometry" />
        </mxCell>
        <mxCell id="_i2WzTihqjqj80gomEKn-46" value="" style="rounded=0;whiteSpace=wrap;html=1;" parent="1" vertex="1">
          <mxGeometry x="690" y="645" width="60" height="60" as="geometry" />
        </mxCell>
        <mxCell id="_i2WzTihqjqj80gomEKn-47" value="" style="rounded=0;whiteSpace=wrap;html=1;" parent="1" vertex="1">
          <mxGeometry x="575" y="640" width="60" height="60" as="geometry" />
        </mxCell>
        <mxCell id="_i2WzTihqjqj80gomEKn-48" value="" style="endArrow=none;html=1;rounded=0;entryX=0.5;entryY=1;entryDx=0;entryDy=0;exitX=0.5;exitY=0;exitDx=0;exitDy=0;" parent="1" source="_i2WzTihqjqj80gomEKn-44" target="_i2WzTihqjqj80gomEKn-3" edge="1">
          <mxGeometry width="50" height="50" relative="1" as="geometry">
            <mxPoint x="270" y="650" as="sourcePoint" />
            <mxPoint x="270" y="620" as="targetPoint" />
          </mxGeometry>
        </mxCell>
        <mxCell id="_i2WzTihqjqj80gomEKn-49" value="" style="endArrow=none;html=1;rounded=0;entryX=0.5;entryY=1;entryDx=0;entryDy=0;exitX=0.5;exitY=0;exitDx=0;exitDy=0;" parent="1" source="_i2WzTihqjqj80gomEKn-45" target="_i2WzTihqjqj80gomEKn-4" edge="1">
          <mxGeometry width="50" height="50" relative="1" as="geometry">
            <mxPoint x="380" y="650" as="sourcePoint" />
            <mxPoint x="380" y="620" as="targetPoint" />
          </mxGeometry>
        </mxCell>
        <mxCell id="_i2WzTihqjqj80gomEKn-50" value="" style="endArrow=none;html=1;rounded=0;entryX=0.5;entryY=1;entryDx=0;entryDy=0;exitX=0.5;exitY=0;exitDx=0;exitDy=0;" parent="1" source="_i2WzTihqjqj80gomEKn-47" target="_i2WzTihqjqj80gomEKn-6" edge="1">
          <mxGeometry width="50" height="50" relative="1" as="geometry">
            <mxPoint x="495" y="650" as="sourcePoint" />
            <mxPoint x="495" y="620" as="targetPoint" />
          </mxGeometry>
        </mxCell>
        <mxCell id="_i2WzTihqjqj80gomEKn-51" value="" style="endArrow=none;html=1;rounded=0;entryX=0.5;entryY=1;entryDx=0;entryDy=0;exitX=0.5;exitY=0;exitDx=0;exitDy=0;" parent="1" source="_i2WzTihqjqj80gomEKn-46" edge="1">
          <mxGeometry width="50" height="50" relative="1" as="geometry">
            <mxPoint x="615" y="655" as="sourcePoint" />
            <mxPoint x="720" y="615" as="targetPoint" />
          </mxGeometry>
        </mxCell>
        <mxCell id="_i2WzTihqjqj80gomEKn-52" value="" style="rounded=0;whiteSpace=wrap;html=1;" parent="1" vertex="1">
          <mxGeometry x="1170" y="632.5" width="60" height="60" as="geometry" />
        </mxCell>
        <mxCell id="_i2WzTihqjqj80gomEKn-53" value="" style="endArrow=none;html=1;rounded=0;entryX=0.5;entryY=1;entryDx=0;entryDy=0;exitX=0.5;exitY=0;exitDx=0;exitDy=0;" parent="1" source="_i2WzTihqjqj80gomEKn-52" edge="1">
          <mxGeometry width="50" height="50" relative="1" as="geometry">
            <mxPoint x="1095" y="642.5" as="sourcePoint" />
            <mxPoint x="1200" y="602.5" as="targetPoint" />
          </mxGeometry>
        </mxCell>
        <mxCell id="_i2WzTihqjqj80gomEKn-54" value="" style="rounded=0;whiteSpace=wrap;html=1;" parent="1" vertex="1">
          <mxGeometry x="1285" y="632.5" width="60" height="60" as="geometry" />
        </mxCell>
        <mxCell id="_i2WzTihqjqj80gomEKn-55" value="" style="endArrow=none;html=1;rounded=0;entryX=0.5;entryY=1;entryDx=0;entryDy=0;exitX=0.5;exitY=0;exitDx=0;exitDy=0;" parent="1" source="_i2WzTihqjqj80gomEKn-54" edge="1">
          <mxGeometry width="50" height="50" relative="1" as="geometry">
            <mxPoint x="1210" y="642.5" as="sourcePoint" />
            <mxPoint x="1315" y="602.5" as="targetPoint" />
          </mxGeometry>
        </mxCell>
        <mxCell id="_i2WzTihqjqj80gomEKn-56" value="" style="rounded=0;whiteSpace=wrap;html=1;" parent="1" vertex="1">
          <mxGeometry x="1405" y="632.5" width="60" height="60" as="geometry" />
        </mxCell>
        <mxCell id="_i2WzTihqjqj80gomEKn-57" value="" style="endArrow=none;html=1;rounded=0;entryX=0.5;entryY=1;entryDx=0;entryDy=0;exitX=0.5;exitY=0;exitDx=0;exitDy=0;" parent="1" source="_i2WzTihqjqj80gomEKn-56" edge="1">
          <mxGeometry width="50" height="50" relative="1" as="geometry">
            <mxPoint x="1330" y="642.5" as="sourcePoint" />
            <mxPoint x="1435" y="602.5" as="targetPoint" />
          </mxGeometry>
        </mxCell>
        <mxCell id="_i2WzTihqjqj80gomEKn-58" value="" style="rounded=0;whiteSpace=wrap;html=1;" parent="1" vertex="1">
          <mxGeometry x="1520" y="632.5" width="60" height="60" as="geometry" />
        </mxCell>
        <mxCell id="_i2WzTihqjqj80gomEKn-59" value="" style="endArrow=none;html=1;rounded=0;entryX=0.5;entryY=1;entryDx=0;entryDy=0;exitX=0.5;exitY=0;exitDx=0;exitDy=0;" parent="1" source="_i2WzTihqjqj80gomEKn-58" target="_i2WzTihqjqj80gomEKn-15" edge="1">
          <mxGeometry width="50" height="50" relative="1" as="geometry">
            <mxPoint x="1445" y="642.5" as="sourcePoint" />
            <mxPoint x="1550" y="602.5" as="targetPoint" />
          </mxGeometry>
        </mxCell>
        <mxCell id="_i2WzTihqjqj80gomEKn-60" value="" style="rounded=0;whiteSpace=wrap;html=1;" parent="1" vertex="1">
          <mxGeometry x="2210" y="635" width="60" height="60" as="geometry" />
        </mxCell>
        <mxCell id="_i2WzTihqjqj80gomEKn-61" value="" style="endArrow=none;html=1;rounded=0;entryX=0.5;entryY=1;entryDx=0;entryDy=0;exitX=0.5;exitY=0;exitDx=0;exitDy=0;" parent="1" source="_i2WzTihqjqj80gomEKn-60" edge="1">
          <mxGeometry width="50" height="50" relative="1" as="geometry">
            <mxPoint x="2135" y="645" as="sourcePoint" />
            <mxPoint x="2240" y="605" as="targetPoint" />
          </mxGeometry>
        </mxCell>
        <mxCell id="_i2WzTihqjqj80gomEKn-62" value="" style="rounded=0;whiteSpace=wrap;html=1;" parent="1" vertex="1">
          <mxGeometry x="2325" y="635" width="60" height="60" as="geometry" />
        </mxCell>
        <mxCell id="_i2WzTihqjqj80gomEKn-63" value="" style="endArrow=none;html=1;rounded=0;entryX=0.5;entryY=1;entryDx=0;entryDy=0;exitX=0.5;exitY=0;exitDx=0;exitDy=0;" parent="1" source="_i2WzTihqjqj80gomEKn-62" edge="1">
          <mxGeometry width="50" height="50" relative="1" as="geometry">
            <mxPoint x="2250" y="645" as="sourcePoint" />
            <mxPoint x="2355" y="605" as="targetPoint" />
          </mxGeometry>
        </mxCell>
        <mxCell id="_i2WzTihqjqj80gomEKn-64" value="" style="rounded=0;whiteSpace=wrap;html=1;" parent="1" vertex="1">
          <mxGeometry x="2445" y="635" width="60" height="60" as="geometry" />
        </mxCell>
        <mxCell id="_i2WzTihqjqj80gomEKn-65" value="" style="endArrow=none;html=1;rounded=0;entryX=0.5;entryY=1;entryDx=0;entryDy=0;exitX=0.5;exitY=0;exitDx=0;exitDy=0;" parent="1" source="_i2WzTihqjqj80gomEKn-64" edge="1">
          <mxGeometry width="50" height="50" relative="1" as="geometry">
            <mxPoint x="2370" y="645" as="sourcePoint" />
            <mxPoint x="2475" y="605" as="targetPoint" />
          </mxGeometry>
        </mxCell>
        <mxCell id="_i2WzTihqjqj80gomEKn-66" value="" style="rounded=0;whiteSpace=wrap;html=1;" parent="1" vertex="1">
          <mxGeometry x="2560" y="635" width="60" height="60" as="geometry" />
        </mxCell>
        <mxCell id="_i2WzTihqjqj80gomEKn-67" value="" style="endArrow=none;html=1;rounded=0;entryX=0.5;entryY=1;entryDx=0;entryDy=0;exitX=0.5;exitY=0;exitDx=0;exitDy=0;" parent="1" source="_i2WzTihqjqj80gomEKn-66" target="_i2WzTihqjqj80gomEKn-25" edge="1">
          <mxGeometry width="50" height="50" relative="1" as="geometry">
            <mxPoint x="2485" y="645" as="sourcePoint" />
            <mxPoint x="2590" y="605" as="targetPoint" />
          </mxGeometry>
        </mxCell>
        <mxCell id="_i2WzTihqjqj80gomEKn-68" value="" style="rounded=0;whiteSpace=wrap;html=1;" parent="1" vertex="1">
          <mxGeometry x="2810" y="632.5" width="60" height="60" as="geometry" />
        </mxCell>
        <mxCell id="_i2WzTihqjqj80gomEKn-69" value="" style="endArrow=none;html=1;rounded=0;entryX=0.5;entryY=1;entryDx=0;entryDy=0;exitX=0.5;exitY=0;exitDx=0;exitDy=0;" parent="1" source="_i2WzTihqjqj80gomEKn-68" edge="1">
          <mxGeometry width="50" height="50" relative="1" as="geometry">
            <mxPoint x="2735" y="642.5" as="sourcePoint" />
            <mxPoint x="2840" y="602.5" as="targetPoint" />
          </mxGeometry>
        </mxCell>
        <mxCell id="_i2WzTihqjqj80gomEKn-72" value="" style="rounded=0;whiteSpace=wrap;html=1;" parent="1" vertex="1">
          <mxGeometry x="3380" y="630" width="60" height="60" as="geometry" />
        </mxCell>
        <mxCell id="_i2WzTihqjqj80gomEKn-73" value="" style="endArrow=none;html=1;rounded=0;entryX=0.5;entryY=1;entryDx=0;entryDy=0;exitX=0.5;exitY=0;exitDx=0;exitDy=0;" parent="1" source="_i2WzTihqjqj80gomEKn-72" edge="1">
          <mxGeometry width="50" height="50" relative="1" as="geometry">
            <mxPoint x="3305" y="640" as="sourcePoint" />
            <mxPoint x="3410" y="600" as="targetPoint" />
          </mxGeometry>
        </mxCell>
        <mxCell id="_i2WzTihqjqj80gomEKn-74" value="" style="rounded=0;whiteSpace=wrap;html=1;" parent="1" vertex="1">
          <mxGeometry x="3500" y="630" width="60" height="60" as="geometry" />
        </mxCell>
        <mxCell id="_i2WzTihqjqj80gomEKn-75" value="" style="endArrow=none;html=1;rounded=0;entryX=0.5;entryY=1;entryDx=0;entryDy=0;exitX=0.5;exitY=0;exitDx=0;exitDy=0;" parent="1" source="_i2WzTihqjqj80gomEKn-74" edge="1">
          <mxGeometry width="50" height="50" relative="1" as="geometry">
            <mxPoint x="3425" y="640" as="sourcePoint" />
            <mxPoint x="3530" y="600" as="targetPoint" />
          </mxGeometry>
        </mxCell>
        <mxCell id="_i2WzTihqjqj80gomEKn-76" value="" style="rounded=0;whiteSpace=wrap;html=1;" parent="1" vertex="1">
          <mxGeometry x="3620" y="630" width="60" height="60" as="geometry" />
        </mxCell>
        <mxCell id="_i2WzTihqjqj80gomEKn-77" value="" style="endArrow=none;html=1;rounded=0;entryX=0.5;entryY=1;entryDx=0;entryDy=0;exitX=0.5;exitY=0;exitDx=0;exitDy=0;" parent="1" source="_i2WzTihqjqj80gomEKn-76" edge="1">
          <mxGeometry width="50" height="50" relative="1" as="geometry">
            <mxPoint x="3545" y="640" as="sourcePoint" />
            <mxPoint x="3650" y="600" as="targetPoint" />
          </mxGeometry>
        </mxCell>
        <mxCell id="_i2WzTihqjqj80gomEKn-78" value="ingredient_id" style="rhombus;whiteSpace=wrap;html=1;" parent="1" vertex="1">
          <mxGeometry x="210" y="565" width="100" height="50" as="geometry" />
        </mxCell>
        <mxCell id="_i2WzTihqjqj80gomEKn-79" value="product_id" style="rhombus;whiteSpace=wrap;html=1;" parent="1" vertex="1">
          <mxGeometry x="1030" y="565" width="100" height="50" as="geometry" />
        </mxCell>
        <mxCell id="_i2WzTihqjqj80gomEKn-80" value="order_id" style="rhombus;whiteSpace=wrap;html=1;" parent="1" vertex="1">
          <mxGeometry x="2080" y="560" width="100" height="50" as="geometry" />
        </mxCell>
        <mxCell id="_i2WzTihqjqj80gomEKn-81" value="customer_id" style="rhombus;whiteSpace=wrap;html=1;" parent="1" vertex="1">
          <mxGeometry x="2670" y="557.5" width="100" height="50" as="geometry" />
        </mxCell>
        <mxCell id="_i2WzTihqjqj80gomEKn-87" value="" style="endArrow=none;html=1;rounded=0;entryX=0.5;entryY=1;entryDx=0;entryDy=0;exitX=0.5;exitY=0;exitDx=0;exitDy=0;" parent="1" source="_i2WzTihqjqj80gomEKn-2" target="_i2WzTihqjqj80gomEKn-1" edge="1">
          <mxGeometry width="50" height="50" relative="1" as="geometry">
            <mxPoint x="1010" y="610" as="sourcePoint" />
            <mxPoint x="1060" y="560" as="targetPoint" />
          </mxGeometry>
        </mxCell>
        <mxCell id="_i2WzTihqjqj80gomEKn-88" value="" style="endArrow=none;html=1;rounded=0;entryX=0.5;entryY=1;entryDx=0;entryDy=0;exitX=0.5;exitY=0;exitDx=0;exitDy=0;" parent="1" source="_i2WzTihqjqj80gomEKn-12" target="_i2WzTihqjqj80gomEKn-1" edge="1">
          <mxGeometry width="50" height="50" relative="1" as="geometry">
            <mxPoint x="810" y="420" as="sourcePoint" />
            <mxPoint x="1195" y="360" as="targetPoint" />
          </mxGeometry>
        </mxCell>
        <mxCell id="_i2WzTihqjqj80gomEKn-89" value="" style="endArrow=none;html=1;rounded=0;entryX=0.5;entryY=1;entryDx=0;entryDy=0;exitX=0.5;exitY=0;exitDx=0;exitDy=0;" parent="1" source="_i2WzTihqjqj80gomEKn-22" target="_i2WzTihqjqj80gomEKn-1" edge="1">
          <mxGeometry width="50" height="50" relative="1" as="geometry">
            <mxPoint x="1463" y="420" as="sourcePoint" />
            <mxPoint x="1195" y="360" as="targetPoint" />
          </mxGeometry>
        </mxCell>
        <mxCell id="_i2WzTihqjqj80gomEKn-90" value="" style="endArrow=none;html=1;rounded=0;entryX=0.5;entryY=1;entryDx=0;entryDy=0;exitX=0.5;exitY=0;exitDx=0;exitDy=0;" parent="1" source="_i2WzTihqjqj80gomEKn-37" target="_i2WzTihqjqj80gomEKn-1" edge="1">
          <mxGeometry width="50" height="50" relative="1" as="geometry">
            <mxPoint x="2055" y="415" as="sourcePoint" />
            <mxPoint x="1195" y="360" as="targetPoint" />
          </mxGeometry>
        </mxCell>
        <mxCell id="_i2WzTihqjqj80gomEKn-101" value="ORDERED_ITEMS" style="ellipse;shape=doubleEllipse;margin=3;whiteSpace=wrap;html=1;align=center;" parent="1" vertex="1">
          <mxGeometry x="1770" y="480" width="120" height="40" as="geometry" />
        </mxCell>
        <mxCell id="_i2WzTihqjqj80gomEKn-102" value="product_id" style="rhombus;whiteSpace=wrap;html=1;" parent="1" vertex="1">
          <mxGeometry x="1650" y="557.5" width="100" height="50" as="geometry" />
        </mxCell>
        <mxCell id="_i2WzTihqjqj80gomEKn-103" value="order_id" style="rhombus;whiteSpace=wrap;html=1;" parent="1" vertex="1">
          <mxGeometry x="1940" y="560" width="100" height="50" as="geometry" />
        </mxCell>
        <mxCell id="_i2WzTihqjqj80gomEKn-104" value="" style="endArrow=none;html=1;rounded=0;exitX=0.5;exitY=0;exitDx=0;exitDy=0;entryX=0.5;entryY=1;entryDx=0;entryDy=0;" parent="1" source="_i2WzTihqjqj80gomEKn-102" target="_i2WzTihqjqj80gomEKn-101" edge="1">
          <mxGeometry width="50" height="50" relative="1" as="geometry">
            <mxPoint x="1930" y="430" as="sourcePoint" />
            <mxPoint x="1980" y="380" as="targetPoint" />
          </mxGeometry>
        </mxCell>
        <mxCell id="_i2WzTihqjqj80gomEKn-105" value="" style="endArrow=none;html=1;rounded=0;exitX=0.5;exitY=1;exitDx=0;exitDy=0;entryX=0.5;entryY=0;entryDx=0;entryDy=0;" parent="1" source="_i2WzTihqjqj80gomEKn-101" target="_i2WzTihqjqj80gomEKn-103" edge="1">
          <mxGeometry width="50" height="50" relative="1" as="geometry">
            <mxPoint x="1910" y="550" as="sourcePoint" />
            <mxPoint x="2167.5" y="560" as="targetPoint" />
          </mxGeometry>
        </mxCell>
        <mxCell id="_i2WzTihqjqj80gomEKn-114" value="" style="endArrow=none;html=1;rounded=0;entryX=0.5;entryY=1;entryDx=0;entryDy=0;exitX=0.5;exitY=0;exitDx=0;exitDy=0;" parent="1" source="_i2WzTihqjqj80gomEKn-101" target="_i2WzTihqjqj80gomEKn-1" edge="1">
          <mxGeometry width="50" height="50" relative="1" as="geometry">
            <mxPoint x="1960" y="500" as="sourcePoint" />
            <mxPoint x="1188.6666666666667" y="380" as="targetPoint" />
          </mxGeometry>
        </mxCell>
        <mxCell id="_i2WzTihqjqj80gomEKn-115" value="name" style="ellipse;whiteSpace=wrap;html=1;align=center;" parent="1" vertex="1">
          <mxGeometry x="4010" y="565" width="100" height="40" as="geometry" />
        </mxCell>
        <mxCell id="_i2WzTihqjqj80gomEKn-116" value="phoneNumber" style="ellipse;whiteSpace=wrap;html=1;align=center;" parent="1" vertex="1">
          <mxGeometry x="4125" y="565" width="100" height="40" as="geometry" />
        </mxCell>
        <mxCell id="_i2WzTihqjqj80gomEKn-117" value="transportType" style="ellipse;whiteSpace=wrap;html=1;align=center;" parent="1" vertex="1">
          <mxGeometry x="4240" y="565" width="100" height="40" as="geometry" />
        </mxCell>
        <mxCell id="_i2WzTihqjqj80gomEKn-118" value="isActive" style="ellipse;whiteSpace=wrap;html=1;align=center;" parent="1" vertex="1">
          <mxGeometry x="4360" y="565" width="100" height="40" as="geometry" />
        </mxCell>
        <mxCell id="M32mEywmCu3_pC92UhcH-16" style="rounded=0;orthogonalLoop=1;jettySize=auto;html=1;exitX=1;exitY=0.5;exitDx=0;exitDy=0;entryX=0.5;entryY=0;entryDx=0;entryDy=0;startArrow=none;startFill=0;endArrow=none;endFill=0;" parent="1" source="_i2WzTihqjqj80gomEKn-120" target="M32mEywmCu3_pC92UhcH-15" edge="1">
          <mxGeometry relative="1" as="geometry" />
        </mxCell>
        <mxCell id="_i2WzTihqjqj80gomEKn-120" value="COURIER" style="ellipse;shape=doubleEllipse;margin=3;whiteSpace=wrap;html=1;align=center;" parent="1" vertex="1">
          <mxGeometry x="4125" y="485" width="100" height="40" as="geometry" />
        </mxCell>
        <mxCell id="_i2WzTihqjqj80gomEKn-121" value="" style="endArrow=none;html=1;rounded=0;exitX=0.5;exitY=0;exitDx=0;exitDy=0;entryX=0.5;entryY=1;entryDx=0;entryDy=0;" parent="1" source="_i2WzTihqjqj80gomEKn-137" target="_i2WzTihqjqj80gomEKn-120" edge="1">
          <mxGeometry width="50" height="50" relative="1" as="geometry">
            <mxPoint x="3510" y="490" as="sourcePoint" />
            <mxPoint x="3867.5" y="370" as="targetPoint" />
          </mxGeometry>
        </mxCell>
        <mxCell id="_i2WzTihqjqj80gomEKn-122" value="" style="endArrow=none;html=1;rounded=0;exitX=0.5;exitY=0;exitDx=0;exitDy=0;entryX=0.5;entryY=1;entryDx=0;entryDy=0;" parent="1" source="_i2WzTihqjqj80gomEKn-115" target="_i2WzTihqjqj80gomEKn-120" edge="1">
          <mxGeometry width="50" height="50" relative="1" as="geometry">
            <mxPoint x="3960.5" y="575" as="sourcePoint" />
            <mxPoint x="4232.5" y="535" as="targetPoint" />
          </mxGeometry>
        </mxCell>
        <mxCell id="_i2WzTihqjqj80gomEKn-123" value="" style="endArrow=none;html=1;rounded=0;exitX=0.5;exitY=0;exitDx=0;exitDy=0;entryX=0.5;entryY=1;entryDx=0;entryDy=0;" parent="1" source="_i2WzTihqjqj80gomEKn-116" target="_i2WzTihqjqj80gomEKn-120" edge="1">
          <mxGeometry width="50" height="50" relative="1" as="geometry">
            <mxPoint x="4070.5" y="575" as="sourcePoint" />
            <mxPoint x="4232.5" y="535" as="targetPoint" />
          </mxGeometry>
        </mxCell>
        <mxCell id="_i2WzTihqjqj80gomEKn-124" value="" style="endArrow=none;html=1;rounded=0;exitX=0.5;exitY=0;exitDx=0;exitDy=0;entryX=0.5;entryY=1;entryDx=0;entryDy=0;" parent="1" source="_i2WzTihqjqj80gomEKn-117" target="_i2WzTihqjqj80gomEKn-120" edge="1">
          <mxGeometry width="50" height="50" relative="1" as="geometry">
            <mxPoint x="4080.5" y="585" as="sourcePoint" />
            <mxPoint x="4232.5" y="535" as="targetPoint" />
          </mxGeometry>
        </mxCell>
        <mxCell id="_i2WzTihqjqj80gomEKn-125" value="" style="endArrow=none;html=1;rounded=0;exitX=0.5;exitY=0;exitDx=0;exitDy=0;entryX=0.5;entryY=1;entryDx=0;entryDy=0;" parent="1" source="_i2WzTihqjqj80gomEKn-118" target="_i2WzTihqjqj80gomEKn-120" edge="1">
          <mxGeometry width="50" height="50" relative="1" as="geometry">
            <mxPoint x="4185.5" y="575" as="sourcePoint" />
            <mxPoint x="4232.5" y="535" as="targetPoint" />
          </mxGeometry>
        </mxCell>
        <mxCell id="_i2WzTihqjqj80gomEKn-127" value="" style="rounded=0;whiteSpace=wrap;html=1;" parent="1" vertex="1">
          <mxGeometry x="4030" y="635" width="60" height="60" as="geometry" />
        </mxCell>
        <mxCell id="_i2WzTihqjqj80gomEKn-128" value="" style="endArrow=none;html=1;rounded=0;entryX=0.5;entryY=1;entryDx=0;entryDy=0;exitX=0.5;exitY=0;exitDx=0;exitDy=0;" parent="1" source="_i2WzTihqjqj80gomEKn-127" edge="1">
          <mxGeometry width="50" height="50" relative="1" as="geometry">
            <mxPoint x="3955" y="645" as="sourcePoint" />
            <mxPoint x="4060" y="605" as="targetPoint" />
          </mxGeometry>
        </mxCell>
        <mxCell id="_i2WzTihqjqj80gomEKn-129" value="" style="rounded=0;whiteSpace=wrap;html=1;" parent="1" vertex="1">
          <mxGeometry x="4145" y="635" width="60" height="60" as="geometry" />
        </mxCell>
        <mxCell id="_i2WzTihqjqj80gomEKn-130" value="" style="endArrow=none;html=1;rounded=0;entryX=0.5;entryY=1;entryDx=0;entryDy=0;exitX=0.5;exitY=0;exitDx=0;exitDy=0;" parent="1" source="_i2WzTihqjqj80gomEKn-129" edge="1">
          <mxGeometry width="50" height="50" relative="1" as="geometry">
            <mxPoint x="4070" y="645" as="sourcePoint" />
            <mxPoint x="4175" y="605" as="targetPoint" />
          </mxGeometry>
        </mxCell>
        <mxCell id="_i2WzTihqjqj80gomEKn-131" value="" style="rounded=0;whiteSpace=wrap;html=1;" parent="1" vertex="1">
          <mxGeometry x="4260" y="635" width="60" height="60" as="geometry" />
        </mxCell>
        <mxCell id="_i2WzTihqjqj80gomEKn-132" value="" style="endArrow=none;html=1;rounded=0;entryX=0.5;entryY=1;entryDx=0;entryDy=0;exitX=0.5;exitY=0;exitDx=0;exitDy=0;" parent="1" source="_i2WzTihqjqj80gomEKn-131" edge="1">
          <mxGeometry width="50" height="50" relative="1" as="geometry">
            <mxPoint x="4185" y="645" as="sourcePoint" />
            <mxPoint x="4290" y="605" as="targetPoint" />
          </mxGeometry>
        </mxCell>
        <mxCell id="_i2WzTihqjqj80gomEKn-133" value="" style="rounded=0;whiteSpace=wrap;html=1;" parent="1" vertex="1">
          <mxGeometry x="4380" y="635" width="60" height="60" as="geometry" />
        </mxCell>
        <mxCell id="_i2WzTihqjqj80gomEKn-134" value="" style="endArrow=none;html=1;rounded=0;entryX=0.5;entryY=1;entryDx=0;entryDy=0;exitX=0.5;exitY=0;exitDx=0;exitDy=0;" parent="1" source="_i2WzTihqjqj80gomEKn-133" edge="1">
          <mxGeometry width="50" height="50" relative="1" as="geometry">
            <mxPoint x="4305" y="645" as="sourcePoint" />
            <mxPoint x="4410" y="605" as="targetPoint" />
          </mxGeometry>
        </mxCell>
        <mxCell id="_i2WzTihqjqj80gomEKn-137" value="courier_id" style="rhombus;whiteSpace=wrap;html=1;" parent="1" vertex="1">
          <mxGeometry x="3890" y="560" width="100" height="50" as="geometry" />
        </mxCell>
        <mxCell id="_i2WzTihqjqj80gomEKn-138" value="" style="endArrow=none;html=1;rounded=0;entryX=0.5;entryY=0;entryDx=0;entryDy=0;exitX=0.5;exitY=1;exitDx=0;exitDy=0;" parent="1" source="_i2WzTihqjqj80gomEKn-1" target="_i2WzTihqjqj80gomEKn-120" edge="1">
          <mxGeometry width="50" height="50" relative="1" as="geometry">
            <mxPoint x="1295.5555555555557" y="330" as="sourcePoint" />
            <mxPoint x="3170" y="190" as="targetPoint" />
          </mxGeometry>
        </mxCell>
        <mxCell id="_i2WzTihqjqj80gomEKn-180" value="orderingDate" style="ellipse;whiteSpace=wrap;html=1;align=center;" parent="1" vertex="1">
          <mxGeometry x="1780" y="562.5" width="100" height="40" as="geometry" />
        </mxCell>
        <mxCell id="_i2WzTihqjqj80gomEKn-181" value="" style="rounded=0;whiteSpace=wrap;html=1;" parent="1" vertex="1">
          <mxGeometry x="1800" y="635" width="60" height="60" as="geometry" />
        </mxCell>
        <mxCell id="_i2WzTihqjqj80gomEKn-182" value="" style="endArrow=none;html=1;rounded=0;entryX=0.5;entryY=1;entryDx=0;entryDy=0;exitX=0.5;exitY=0;exitDx=0;exitDy=0;" parent="1" source="_i2WzTihqjqj80gomEKn-181" target="_i2WzTihqjqj80gomEKn-180" edge="1">
          <mxGeometry width="50" height="50" relative="1" as="geometry">
            <mxPoint x="1665" y="642.5" as="sourcePoint" />
            <mxPoint x="1770" y="602.5" as="targetPoint" />
          </mxGeometry>
        </mxCell>
        <mxCell id="_i2WzTihqjqj80gomEKn-186" value="" style="endArrow=none;html=1;rounded=0;entryX=0.5;entryY=1;entryDx=0;entryDy=0;exitX=0.5;exitY=0;exitDx=0;exitDy=0;" parent="1" source="_i2WzTihqjqj80gomEKn-180" target="_i2WzTihqjqj80gomEKn-101" edge="1">
          <mxGeometry width="50" height="50" relative="1" as="geometry">
            <mxPoint x="1900" y="770" as="sourcePoint" />
            <mxPoint x="1950" y="720" as="targetPoint" />
          </mxGeometry>
        </mxCell>
        <mxCell id="M32mEywmCu3_pC92UhcH-11" style="rounded=0;orthogonalLoop=1;jettySize=auto;html=1;exitX=0;exitY=1;exitDx=0;exitDy=0;entryX=0.5;entryY=0;entryDx=0;entryDy=0;startArrow=none;startFill=0;endArrow=none;endFill=0;" parent="1" source="M32mEywmCu3_pC92UhcH-4" target="M32mEywmCu3_pC92UhcH-7" edge="1">
          <mxGeometry relative="1" as="geometry" />
        </mxCell>
        <mxCell id="M32mEywmCu3_pC92UhcH-4" value="MADE_OF" style="ellipse;shape=doubleEllipse;margin=3;whiteSpace=wrap;html=1;align=center;" parent="1" vertex="1">
          <mxGeometry x="850" y="480" width="100" height="40" as="geometry" />
        </mxCell>
        <mxCell id="M32mEywmCu3_pC92UhcH-12" style="edgeStyle=none;rounded=0;orthogonalLoop=1;jettySize=auto;html=1;exitX=0.5;exitY=0;exitDx=0;exitDy=0;entryX=1;entryY=1;entryDx=0;entryDy=0;startArrow=none;startFill=0;endArrow=none;endFill=0;" parent="1" source="M32mEywmCu3_pC92UhcH-5" target="M32mEywmCu3_pC92UhcH-4" edge="1">
          <mxGeometry relative="1" as="geometry" />
        </mxCell>
        <mxCell id="M32mEywmCu3_pC92UhcH-5" value="product_id" style="rhombus;whiteSpace=wrap;html=1;" parent="1" vertex="1">
          <mxGeometry x="896" y="565" width="100" height="50" as="geometry" />
        </mxCell>
        <mxCell id="M32mEywmCu3_pC92UhcH-7" value="ingredient_id" style="rhombus;whiteSpace=wrap;html=1;" parent="1" vertex="1">
          <mxGeometry x="790" y="565" width="100" height="50" as="geometry" />
        </mxCell>
        <mxCell id="M32mEywmCu3_pC92UhcH-15" value="courier_demand" style="rhombus;whiteSpace=wrap;html=1;" parent="1" vertex="1">
          <mxGeometry x="4480" y="565" width="100" height="50" as="geometry" />
        </mxCell>
        <mxCell id="M32mEywmCu3_pC92UhcH-36" style="edgeStyle=none;rounded=0;orthogonalLoop=1;jettySize=auto;html=1;exitX=0.5;exitY=1;exitDx=0;exitDy=0;entryX=0.5;entryY=0;entryDx=0;entryDy=0;startArrow=none;startFill=0;endArrow=none;endFill=0;" parent="1" source="M32mEywmCu3_pC92UhcH-20" target="M32mEywmCu3_pC92UhcH-29" edge="1">
          <mxGeometry relative="1" as="geometry" />
        </mxCell>
        <mxCell id="M32mEywmCu3_pC92UhcH-20" value="postalCode" style="ellipse;whiteSpace=wrap;html=1;align=center;" parent="1" vertex="1">
          <mxGeometry x="2905" y="640" width="100" height="40" as="geometry" />
        </mxCell>
        <mxCell id="M32mEywmCu3_pC92UhcH-35" style="edgeStyle=none;rounded=0;orthogonalLoop=1;jettySize=auto;html=1;exitX=0.5;exitY=1;exitDx=0;exitDy=0;entryX=0.5;entryY=0;entryDx=0;entryDy=0;startArrow=none;startFill=0;endArrow=none;endFill=0;" parent="1" source="M32mEywmCu3_pC92UhcH-21" target="M32mEywmCu3_pC92UhcH-30" edge="1">
          <mxGeometry relative="1" as="geometry" />
        </mxCell>
        <mxCell id="M32mEywmCu3_pC92UhcH-21" value="street" style="ellipse;whiteSpace=wrap;html=1;align=center;" parent="1" vertex="1">
          <mxGeometry x="3015" y="642.5" width="100" height="40" as="geometry" />
        </mxCell>
        <mxCell id="M32mEywmCu3_pC92UhcH-34" style="edgeStyle=none;rounded=0;orthogonalLoop=1;jettySize=auto;html=1;exitX=0.5;exitY=1;exitDx=0;exitDy=0;entryX=0.5;entryY=0;entryDx=0;entryDy=0;startArrow=none;startFill=0;endArrow=none;endFill=0;" parent="1" source="M32mEywmCu3_pC92UhcH-22" target="M32mEywmCu3_pC92UhcH-31" edge="1">
          <mxGeometry relative="1" as="geometry" />
        </mxCell>
        <mxCell id="M32mEywmCu3_pC92UhcH-22" value="houseNumber" style="ellipse;whiteSpace=wrap;html=1;align=center;" parent="1" vertex="1">
          <mxGeometry x="3125" y="642.5" width="100" height="40" as="geometry" />
        </mxCell>
        <mxCell id="M32mEywmCu3_pC92UhcH-33" style="edgeStyle=none;rounded=0;orthogonalLoop=1;jettySize=auto;html=1;exitX=0.5;exitY=1;exitDx=0;exitDy=0;entryX=0.5;entryY=0;entryDx=0;entryDy=0;startArrow=none;startFill=0;endArrow=none;endFill=0;" parent="1" source="M32mEywmCu3_pC92UhcH-23" target="M32mEywmCu3_pC92UhcH-32" edge="1">
          <mxGeometry relative="1" as="geometry" />
        </mxCell>
        <mxCell id="M32mEywmCu3_pC92UhcH-23" value="doorNumber" style="ellipse;whiteSpace=wrap;html=1;align=center;" parent="1" vertex="1">
          <mxGeometry x="3235" y="645" width="100" height="40" as="geometry" />
        </mxCell>
        <mxCell id="M32mEywmCu3_pC92UhcH-29" value="" style="rounded=0;whiteSpace=wrap;html=1;" parent="1" vertex="1">
          <mxGeometry x="2920" y="705" width="60" height="60" as="geometry" />
        </mxCell>
        <mxCell id="M32mEywmCu3_pC92UhcH-30" value="" style="rounded=0;whiteSpace=wrap;html=1;" parent="1" vertex="1">
          <mxGeometry x="3035" y="705" width="60" height="60" as="geometry" />
        </mxCell>
        <mxCell id="M32mEywmCu3_pC92UhcH-31" value="" style="rounded=0;whiteSpace=wrap;html=1;" parent="1" vertex="1">
          <mxGeometry x="3150" y="705" width="60" height="60" as="geometry" />
        </mxCell>
        <mxCell id="M32mEywmCu3_pC92UhcH-32" value="" style="rounded=0;whiteSpace=wrap;html=1;" parent="1" vertex="1">
          <mxGeometry x="3255" y="705" width="60" height="60" as="geometry" />
        </mxCell>
        <mxCell id="M32mEywmCu3_pC92UhcH-39" value="create_order" style="rhombus;whiteSpace=wrap;html=1;" parent="1" vertex="1">
          <mxGeometry x="3720" y="552.5" width="100" height="50" as="geometry" />
        </mxCell>
        <mxCell id="WQn01pP7zkp8sOKhAd-f-1" value="" style="endArrow=block;dashed=1;endFill=0;endSize=12;html=1;rounded=0;exitX=0.5;exitY=1;exitDx=0;exitDy=0;entryX=0;entryY=0.5;entryDx=0;entryDy=0;" parent="1" source="_i2WzTihqjqj80gomEKn-78" target="M32mEywmCu3_pC92UhcH-7" edge="1">
          <mxGeometry width="160" relative="1" as="geometry">
            <mxPoint x="510" y="500" as="sourcePoint" />
            <mxPoint x="776" y="590" as="targetPoint" />
            <Array as="points">
              <mxPoint x="260" y="730" />
              <mxPoint x="540" y="730" />
              <mxPoint x="790" y="730" />
            </Array>
          </mxGeometry>
        </mxCell>
        <mxCell id="WQn01pP7zkp8sOKhAd-f-3" value="" style="endArrow=block;dashed=1;endFill=0;endSize=12;html=1;rounded=0;entryX=0.5;entryY=1;entryDx=0;entryDy=0;exitX=0;exitY=0.5;exitDx=0;exitDy=0;" parent="1" source="_i2WzTihqjqj80gomEKn-79" target="M32mEywmCu3_pC92UhcH-5" edge="1">
          <mxGeometry width="160" relative="1" as="geometry">
            <mxPoint x="1270" y="700" as="sourcePoint" />
            <mxPoint x="1430" y="700" as="targetPoint" />
            <Array as="points">
              <mxPoint x="1030" y="750" />
              <mxPoint x="946" y="750" />
            </Array>
          </mxGeometry>
        </mxCell>
        <mxCell id="WQn01pP7zkp8sOKhAd-f-4" value="" style="endArrow=block;dashed=1;endFill=0;endSize=12;html=1;rounded=0;exitX=1;exitY=0.5;exitDx=0;exitDy=0;entryX=0;entryY=0.5;entryDx=0;entryDy=0;" parent="1" source="_i2WzTihqjqj80gomEKn-79" target="_i2WzTihqjqj80gomEKn-102" edge="1">
          <mxGeometry width="160" relative="1" as="geometry">
            <mxPoint x="1270" y="700" as="sourcePoint" />
            <mxPoint x="1430" y="700" as="targetPoint" />
            <Array as="points">
              <mxPoint x="1130" y="750" />
              <mxPoint x="1360" y="750" />
              <mxPoint x="1610" y="750" />
              <mxPoint x="1610" y="583" />
            </Array>
          </mxGeometry>
        </mxCell>
        <mxCell id="WQn01pP7zkp8sOKhAd-f-5" value="" style="endArrow=block;dashed=1;endFill=0;endSize=12;html=1;rounded=0;entryX=0.5;entryY=1;entryDx=0;entryDy=0;exitX=0;exitY=0.5;exitDx=0;exitDy=0;" parent="1" source="_i2WzTihqjqj80gomEKn-80" target="_i2WzTihqjqj80gomEKn-103" edge="1">
          <mxGeometry width="160" relative="1" as="geometry">
            <mxPoint x="2150" y="680" as="sourcePoint" />
            <mxPoint x="2310" y="680" as="targetPoint" />
            <Array as="points">
              <mxPoint x="2050" y="585" />
              <mxPoint x="2050" y="760" />
              <mxPoint x="1990" y="760" />
            </Array>
          </mxGeometry>
        </mxCell>
        <mxCell id="WQn01pP7zkp8sOKhAd-f-7" value="" style="endArrow=block;dashed=1;endFill=0;endSize=12;html=1;rounded=0;exitX=1;exitY=0.5;exitDx=0;exitDy=0;entryX=0.5;entryY=1;entryDx=0;entryDy=0;" parent="1" source="_i2WzTihqjqj80gomEKn-80" target="M32mEywmCu3_pC92UhcH-39" edge="1">
          <mxGeometry width="160" relative="1" as="geometry">
            <mxPoint x="3060" y="610" as="sourcePoint" />
            <mxPoint x="3220" y="610" as="targetPoint" />
            <Array as="points">
              <mxPoint x="2180" y="780" />
              <mxPoint x="2980" y="780" />
              <mxPoint x="3770" y="780" />
            </Array>
          </mxGeometry>
        </mxCell>
        <mxCell id="WQn01pP7zkp8sOKhAd-f-8" value="" style="endArrow=block;dashed=1;endFill=0;endSize=12;html=1;rounded=0;exitX=0.5;exitY=1;exitDx=0;exitDy=0;entryX=0.5;entryY=1;entryDx=0;entryDy=0;" parent="1" source="_i2WzTihqjqj80gomEKn-80" target="M32mEywmCu3_pC92UhcH-15" edge="1">
          <mxGeometry width="160" relative="1" as="geometry">
            <mxPoint x="3160" y="610" as="sourcePoint" />
            <mxPoint x="3320" y="610" as="targetPoint" />
            <Array as="points">
              <mxPoint x="2130" y="820" />
              <mxPoint x="3320" y="820" />
              <mxPoint x="4530" y="810" />
            </Array>
          </mxGeometry>
        </mxCell>
      </root>
    </mxGraphModel>
  </diagram>
</mxfile>
